[Header]
FileType HTR
DataType HTRS
FileVersion 1
NumSegments 64
NumFrames 3
DataFrameRate 24
EulerRotationOrder ZYX
CalibrationUnits mm
RotationUnits Degrees
GlobalAxisofGravity Y
BoneLengthAxis Y
ScaleFactor 1.0
[SegmentNames&Hierarchy]
Hips	GLOBAL
Spine	Hips
Spine1	Spine
Spine2	Spine1
Neck	Spine2
Head	Neck
LeftEye	Head
RightEye	Head
LeftShoulder	Spine2
LeftArm	LeftShoulder
LeftForeArm	LeftArm
LeftHand	LeftForeArm
LeftHandThumb1	LeftHand
LeftHandThumb2	LeftHandThumb1
LeftHandThumb3	LeftHandThumb2
LeftHandThumb4	LeftHandThumb3
LeftHandIndex1	LeftHand
LeftHandIndex2	LeftHandIndex1
LeftHandIndex3	LeftHandIndex2
LeftHandIndex4	LeftHandIndex3
LeftHandMiddle1	LeftHand
LeftHandMiddle2	LeftHandMiddle1
LeftHandMiddle3	LeftHandMiddle2
LeftHandMiddle4	LeftHandMiddle3
LeftHandRing1	LeftHand
LeftHandRing2	LeftHandRing1
LeftHandRing3	LeftHandRing2
LeftHandRing4	LeftHandRing3
LeftHandPinky1	LeftHand
LeftHandPinky2	LeftHandPinky1
LeftHandPinky3	LeftHandPinky2
LeftHandPinky4	LeftHandPinky3
RightShoulder	Spine2
RightArm	RightShoulder
RightForeArm	RightArm
RightHand	RightForeArm
RightHandPinky1	RightHand
RightHandPinky2	RightHandPinky1
RightHandPinky3	RightHandPinky2
RightHandPinky4	RightHandPinky3
RightHandRing1	RightHand
RightHandRing2	RightHandRing1
RightHandRing3	RightHandRing2
RightHandRing4	RightHandRing3
RightHandMiddle1	RightHand
RightHandMiddle2	RightHandMiddle1
RightHandMiddle3	RightHandMiddle2
RightHandMiddle4	RightHandMiddle3
RightHandIndex1	RightHand
RightHandIndex2	RightHandIndex1
RightHandIndex3	RightHandIndex2
RightHandIndex4	RightHandIndex3
RightHandThumb1	RightHand
RightHandThumb2	RightHandThumb1
RightHandThumb3	RightHandThumb2
RightHandThumb4	RightHandThumb3
LeftUpLeg	Hips
LeftLeg	LeftUpLeg
LeftFoot	LeftLeg
LeftToeBase	LeftFoot
RightUpLeg	Hips
RightLeg	RightUpLeg
RightFoot	RightLeg
RightToeBase	RightFoot
[BasePosition]
Hips	0	0	0	0	0	0	1
Spine	0	0	0	0	0	0	1
Spine1	0	0	0	0	0	0	1
Spine2	0	0	0	0	0	0	1
Neck	0	0	0	0	0	0	1
Head	0	0	0	0	0	0	1
LeftEye	0	0	0	0	0	0	1
RightEye	0	0	0	0	0	0	1
LeftShoulder	0	0	0	0	0	0	1
LeftArm	0	0	0	0	0	0	1
LeftForeArm	0	0	0	0	0	0	1
LeftHand	0	0	0	0	0	0	1
LeftHandThumb1	0	0	0	0	0	0	1
LeftHandThumb2	0	0	0	0	0	0	1
LeftHandThumb3	0	0	0	0	0	0	1
LeftHandThumb4	0	0	0	0	0	0	1
LeftHandIndex1	0	0	0	0	0	0	1
LeftHandIndex2	0	0	0	0	0	0	1
LeftHandIndex3	0	0	0	0	0	0	1
LeftHandIndex4	0	0	0	0	0	0	1
LeftHandMiddle1	0	0	0	0	0	0	1
LeftHandMiddle2	0	0	0	0	0	0	1
LeftHandMiddle3	0	0	0	0	0	0	1
LeftHandMiddle4	0	0	0	0	0	0	1
LeftHandRing1	0	0	0	0	0	0	1
LeftHandRing2	0	0	0	0	0	0	1
LeftHandRing3	0	0	0	0	0	0	1
LeftHandRing4	0	0	0	0	0	0	1
LeftHandPinky1	0	0	0	0	0	0	1
LeftHandPinky2	0	0	0	0	0	0	1
LeftHandPinky3	0	0	0	0	0	0	1
LeftHandPinky4	0	0	0	0	0	0	1
RightShoulder	0	0	0	0	0	0	1
RightArm	0	0	0	0	0	0	1
RightForeArm	0	0	0	0	0	0	1
RightHand	0	0	0	0	0	0	1
RightHandPinky1	0	0	0	0	0	0	1
RightHandPinky2	0	0	0	0	0	0	1
RightHandPinky3	0	0	0	0	0	0	1
RightHandPinky4	0	0	0	0	0	0	1
RightHandRing1	0	0	0	0	0	0	1
RightHandRing2	0	0	0	0	0	0	1
RightHandRing3	0	0	0	0	0	0	1
RightHandRing4	0	0	0	0	0	0	1
RightHandMiddle1	0	0	0	0	0	0	1
RightHandMiddle2	0	0	0	0	0	0	1
RightHandMiddle3	0	0	0	0	0	0	1
RightHandMiddle4	0	0	0	0	0	0	1
RightHandIndex1	0	0	0	0	0	0	1
RightHandIndex2	0	0	0	0	0	0	1
RightHandIndex3	0	0	0	0	0	0	1
RightHandIndex4	0	0	0	0	0	0	1
RightHandThumb1	0	0	0	0	0	0	1
RightHandThumb2	0	0	0	0	0	0	1
RightHandThumb3	0	0	0	0	0	0	1
RightHandThumb4	0	0	0	0	0	0	1
LeftUpLeg	0	0	0	0	0	0	1
LeftLeg	0	0	0	0	0	0	1
LeftFoot	0	0	0	0	0	0	1
LeftToeBase	0	0	0	0	0	0	1
RightUpLeg	0	0	0	0	0	0	1
RightLeg	0	0	0	0	0	0	1
RightFoot	0	0	0	0	0	0	1
RightToeBase	0	0	0	0	0	0	1
[Hips]
5	-10.86539841	987.1213379	14.09743214	10.65342045	-53.44417953	-11.36125374	1.0
6	-10.6842804	986.6405029	13.77011299	10.65373707	-53.48724747	-11.37054443	1.0
7	-10.5590353	986.2258911	13.42980576	10.65360451	-53.54117584	-11.38386154	1.0
[Spine]
5	9.234152094e-05	101.8158798	1.31520927	2.978111267	6.675140381	3.34005332	1.0
6	9.234152094e-05	101.8158798	1.31520927	3.004007339	6.675196648	3.347438335	1.0
7	9.234152094e-05	101.8158798	1.31520927	3.026146412	6.670550346	3.34635973	1.0
[Spine1]
5	2.519402869e-06	100.8345108	-10.00804329	2.71739459	7.852200508	-0.04676071554	1.0
6	2.519402869e-06	100.8345108	-10.00804329	2.731722593	7.855212212	-0.04935093224	1.0
7	2.519402869e-06	100.8345108	-10.00804329	2.744742393	7.855028629	-0.05434462056	1.0
[Spine2]
5	3.4574864e-06	91.00010681	-13.73417091	2.77856493	7.852745533	-0.2302520722	1.0
6	3.4574864e-06	91.00010681	-13.73417091	2.791887045	7.856908798	-0.2344006151	1.0
7	3.4574864e-06	91.00010681	-13.73417091	2.803877354	7.857964039	-0.2406424284	1.0
[Neck]
5	6.334285445e-06	166.7166901	-25.16167831	11.4650631	7.544557571	-2.956258059	1.0
6	6.334285445e-06	166.7166901	-25.16167831	11.43673992	7.543259144	-2.96097517	1.0
7	6.334285445e-06	166.7166901	-25.16167831	11.41373158	7.552972794	-2.959676981	1.0
[Head]
5	-4.242318937e-06	96.17874908	16.85007477	2.264303207	19.70309448	8.511011124	1.0
6	-4.242318937e-06	96.17874908	16.85007477	2.189463139	19.72186661	8.476417542	1.0
7	-4.242318937e-06	96.17874908	16.85007477	2.121881723	19.79559708	8.462006569	1.0
[LeftEye]
5	30.67560577	64.09507751	92.83554077	0	0	0	1.0
6	30.67560577	64.09507751	92.83554077	0	0	0	1.0
7	30.67560577	64.09507751	92.83554077	0	0	0	1.0
[RightEye]
5	-30.67550468	64.09500122	92.83547211	0	0	0	1.0
6	-30.67550468	64.09500122	92.83547211	0	0	0	1.0
7	-30.67550468	64.09500122	92.83547211	0	0	0	1.0
[LeftShoulder]
5	45.70446396	109.4598465	-26.27988052	2.598074913	5.6505723	-12.04308319	1.0
6	45.70446396	109.4598465	-26.27988052	2.606770992	5.769024372	-12.24543762	1.0
7	45.70446396	109.4598465	-26.27988052	2.612099409	5.890031338	-12.43902779	1.0
[LeftArm]
5	105.9236984	-5.245829105	-22.32120132	-29.12060928	-56.29901123	-17.47636986	1.0
6	105.9236984	-5.245829105	-22.32120132	-29.25832558	-56.39379501	-17.34776306	1.0
7	105.9236984	-5.245829105	-22.32120132	-29.38202667	-56.46635056	-17.24339104	1.0
[LeftForeArm]
5	278.4151917	-0.0008942864952	0.0003745891154	9.148295067e-05	-82.03903961	-0.0002056302765	1.0
6	278.4151917	-0.0008942864952	0.0003745891154	2.063373176e-05	-82.09454346	-0.0001977057109	1.0
7	278.4151917	-0.0008942864952	0.0003745891154	-4.841432019e-05	-82.186203	-0.0001878288749	1.0
[LeftHand]
5	283.2883911	-0.0001744071778	0.0003780452244	-48.01548386	46.3017807	1.751437902	1.0
6	283.2883911	-0.0001744071778	0.0003780452244	-47.91703796	46.4701004	1.489131212	1.0
7	283.2883911	-0.0001744071778	0.0003780452244	-47.77902603	46.67018127	1.266254067	1.0
[LeftHandThumb1]
5	24.66140366	-15.7504921	26.82413483	-12.29798794	13.35949898	9.401165009	1.0
6	24.66140366	-15.7504921	26.82413483	-12.29798794	13.35949898	9.401165009	1.0
7	24.66140366	-15.7504921	26.82413483	-12.29798794	13.35949898	9.401165009	1.0
[LeftHandThumb2]
5	32.29803848	-18.6469059	18.64681244	-0.2483453304	-4.311873436	13.28869915	1.0
6	32.29803848	-18.6469059	18.64681244	-0.2483453304	-4.311873436	13.28869915	1.0
7	32.29803848	-18.6469059	18.64681244	-0.2483453304	-4.311873436	13.28869915	1.0
[LeftHandThumb3]
5	26.52565002	-15.31492996	15.31471634	-9.976514816	-23.52258492	0.1755283028	1.0
6	26.52565002	-15.31492996	15.31471634	-9.976514816	-23.52258492	0.1755283028	1.0
7	26.52565002	-15.31492996	15.31471634	-9.976514816	-23.52258492	0.1755283028	1.0
[LeftHandThumb4]
5	19.54566956	-11.2850008	11.28492165	0	0	0	1.0
6	19.54566956	-11.2850008	11.28492165	0	0	0	1.0
7	19.54566956	-11.2850008	11.28492165	0	0	0	1.0
[LeftHandIndex1]
5	91.09301758	-5.170834064	22.6007309	-2.034207106	1.761208534	-31.54689026	1.0
6	91.09301758	-5.170834064	22.6007309	-2.034207106	1.761208534	-31.54689026	1.0
7	91.09301758	-5.170834064	22.6007309	-2.034207106	1.761208534	-31.54689026	1.0
[LeftHandIndex2]
5	36.76409531	-6.939138257e-05	0.0002924251603	-3.082290649	5.140966415	-61.86808395	1.0
6	36.76409531	-6.939138257e-05	0.0002924251603	-3.082290649	5.140966415	-61.86808395	1.0
7	36.76409531	-6.939138257e-05	0.0002924251603	-3.082290649	5.140966415	-61.86808395	1.0
[LeftHandIndex3]
5	28.83062553	0.000385119667	-0.0004276481632	-0.5015913248	2.368166685	-23.91410255	1.0
6	28.83062553	0.000385119667	-0.0004276481632	-0.5015913248	2.368166685	-23.91410255	1.0
7	28.83062553	0.000385119667	-0.0004276481632	-0.5015913248	2.368166685	-23.91410255	1.0
[LeftHandIndex4]
5	23.92720032	0.0003702590766	0.0003355443478	0	0	0	1.0
6	23.92720032	0.0003702590766	0.0003355443478	0	0	0	1.0
7	23.92720032	0.0003702590766	0.0003355443478	0	0	0	1.0
[LeftHandMiddle1]
5	95.33401489	-0.000339240476	0.0001393702551	-2.959770441	-0.3316034675	-41.48937225	1.0
6	95.33401489	-0.000339240476	0.0001393702551	-2.959770441	-0.3316034675	-41.48937225	1.0
7	95.33401489	-0.000339240476	0.0001393702551	-2.959770441	-0.3316034675	-41.48937225	1.0
[LeftHandMiddle2]
5	36.98236847	1.961359158e-05	0.0001791696704	-2.939359903	5.06229353	-60.2610817	1.0
6	36.98236847	1.961359158e-05	0.0001791696704	-2.939359903	5.06229353	-60.2610817	1.0
7	36.98236847	1.961359158e-05	0.0001791696704	-2.939359903	5.06229353	-60.2610817	1.0
[LeftHandMiddle3]
5	29.50921631	-0.0003937608562	0.0001644795993	-1.315997601	3.691623449	-39.22911072	1.0
6	29.50921631	-0.0003937608562	0.0001644795993	-1.315997601	3.691623449	-39.22911072	1.0
7	29.50921631	-0.0003937608562	0.0001644795993	-1.315997601	3.691623449	-39.22911072	1.0
[LeftHandMiddle4]
5	28.3390255	-0.0003893481917	-9.504223272e-05	0	0	0	1.0
6	28.3390255	-0.0003893481917	-9.504223272e-05	0	0	0	1.0
7	28.3390255	-0.0003893481917	-9.504223272e-05	0	0	0	1.0
[LeftHandRing1]
5	91.04527283	-0.4393950403	-18.65084648	-3.775710106	-4.751326084	-49.6909523	1.0
6	91.04527283	-0.4393950403	-18.65084648	-3.775710106	-4.751326084	-49.6909523	1.0
7	91.04527283	-0.4393950403	-18.65084648	-3.775710106	-4.751326084	-49.6909523	1.0
[LeftHandRing2]
5	31.54026794	-6.55346812e-05	0.000104257444	-3.032872438	5.114353657	-61.31506729	1.0
6	31.54026794	-6.55346812e-05	0.000104257444	-3.032872438	5.114353657	-61.31506729	1.0
7	31.54026794	-6.55346812e-05	0.000104257444	-3.032872438	5.114353657	-61.31506729	1.0
[LeftHandRing3]
5	29.37672424	-0.0004545861739	-6.864757597e-05	-0.350160718	1.992284179	-19.93597984	1.0
6	29.37672424	-0.0004545861739	-6.864757597e-05	-0.350160718	1.992284179	-19.93597984	1.0
7	29.37672424	-0.0004545861739	-6.864757597e-05	-0.350160718	1.992284179	-19.93597984	1.0
[LeftHandRing4]
5	26.47452545	-0.0004980441299	7.070515267e-07	0	0	0	1.0
6	26.47452545	-0.0004980441299	7.070515267e-07	0	0	0	1.0
7	26.47452545	-0.0004980441299	7.070515267e-07	0	0	0	1.0
[LeftHandPinky1]
5	80.77777863	-4.886682034	-38.06066895	-2.494308233	-10.25931644	-37.81870651	1.0
6	80.77777863	-4.886682034	-38.06066895	-2.494308233	-10.25931644	-37.81870651	1.0
7	80.77777863	-4.886682034	-38.06066895	-2.494308233	-10.25931644	-37.81870651	1.0
[LeftHandPinky2]
5	36.00034332	-2.252215199e-05	-0.0002623879409	-2.836258411	5.002195358	-59.08558273	1.0
6	36.00034332	-2.252215199e-05	-0.0002623879409	-2.836258411	5.002195358	-59.08558273	1.0
7	36.00034332	-2.252215199e-05	-0.0002623879409	-2.836258411	5.002195358	-59.08558273	1.0
[LeftHandPinky3]
5	21.14211655	0.0001953828178	-2.864415183e-05	-0.872974813	3.07111001	-31.72867775	1.0
6	21.14211655	0.0001953828178	-2.864415183e-05	-0.872974813	3.07111001	-31.72867775	1.0
7	21.14211655	0.0001953828178	-2.864415183e-05	-0.872974813	3.07111001	-31.72867775	1.0
[LeftHandPinky4]
5	19.7568264	0.0001240565616	-0.0004430140834	0	0	0	1.0
6	19.7568264	0.0001240565616	-0.0004430140834	0	0	0	1.0
7	19.7568264	0.0001240565616	-0.0004430140834	0	0	0	1.0
[RightShoulder]
5	-45.69969559	109.4617615	-26.28017426	-14.801054	1.073387027	-4.589987755	1.0
6	-45.69969559	109.4617615	-26.28017426	-14.78428459	1.10765636	-4.49832058	1.0
7	-45.69969559	109.4617615	-26.28017426	-14.76566792	1.143626332	-4.400101662	1.0
[RightArm]
5	-105.9284363	-5.247983932	-22.32098579	-62.37773895	118.615181	-17.54443359	1.0
6	-105.9284363	-5.247983932	-22.32098579	-62.75798798	118.714859	-17.7157917	1.0
7	-105.9284363	-5.247983932	-22.32098579	-63.1466217	118.8215179	-17.89828491	1.0
[RightForeArm]
5	-278.4151917	-0.0003307921579	0.0001167631053	1.047014939e-05	29.51952744	-1.120799311e-06	1.0
6	-278.4151917	-0.0003307921579	0.0001167631053	2.211227184e-07	29.63012695	-3.367799309e-06	1.0
7	-278.4151917	-0.0003307921579	0.0001167631053	-1.141819575e-05	29.75368881	-4.393288691e-06	1.0
[RightHand]
5	-283.2883911	-1.581417109e-06	0.000558160129	-42.99549484	-28.78069687	-16.39372063	1.0
6	-283.2883911	-1.581417109e-06	0.000558160129	-42.76876068	-28.91186905	-16.40431213	1.0
7	-283.2883911	-1.581417109e-06	0.000558160129	-42.55794907	-29.02462578	-16.40005112	1.0
[RightHandPinky1]
5	-80.76674652	-4.88459301	-38.06010437	-4.179559231	-3.048670053	59.07947159	1.0
6	-80.76674652	-4.88459301	-38.06010437	-4.179559231	-3.048670053	59.07947159	1.0
7	-80.76674652	-4.88459301	-38.06010437	-4.179559231	-3.048670053	59.07947159	1.0
[RightHandPinky2]
5	-36.00034332	0.0003967665543	0.0005081442068	-3.174546003	-4.396142006	71.67469025	1.0
6	-36.00034332	0.0003967665543	0.0005081442068	-3.174546003	-4.396142006	71.67469025	1.0
7	-36.00034332	0.0003967665543	0.0005081442068	-3.174546003	-4.396142006	71.67469025	1.0
[RightHandPinky3]
5	-21.14211655	0.0001513792522	0.0001479376951	-1.761317968	-3.635984421	51.6805954	1.0
6	-21.14211655	0.0001513792522	0.0001479376951	-1.761317968	-3.635984421	51.6805954	1.0
7	-21.14211655	0.0001513792522	0.0001479376951	-1.761317968	-3.635984421	51.6805954	1.0
[RightHandPinky4]
5	-19.7568264	-0.000185219571	-9.839841368e-06	0	0	0	1.0
6	-19.7568264	-0.000185219571	-9.839841368e-06	0	0	0	1.0
7	-19.7568264	-0.000185219571	-9.839841368e-06	0	0	0	1.0
[RightHandRing1]
5	-91.03588104	-0.4391434789	-18.65072441	-4.049632549	-6.933060169	57.63954544	1.0
6	-91.03588104	-0.4391434789	-18.65072441	-4.049632549	-6.933060169	57.63954544	1.0
7	-91.03588104	-0.4391434789	-18.65072441	-4.049632549	-6.933060169	57.63954544	1.0
[RightHandRing2]
5	-31.54026794	0.0002399729856	0.0004885121016	-5.297682285	-4.582300186	98.2931366	1.0
6	-31.54026794	0.0002399729856	0.0004885121016	-5.297682285	-4.582300186	98.2931366	1.0
7	-31.54026794	0.0002399729856	0.0004885121016	-5.297682285	-4.582300186	98.2931366	1.0
[RightHandRing3]
5	-29.37672424	-0.0004160065437	-0.0003966063377	-1.618076921	-3.518265247	49.38505554	1.0
6	-29.37672424	-0.0004160065437	-0.0003966063377	-1.618076921	-3.518265247	49.38505554	1.0
7	-29.37672424	-0.0004160065437	-0.0003966063377	-1.618076921	-3.518265247	49.38505554	1.0
[RightHandRing4]
5	-26.47452545	0.0002460821415	-2.294923434e-05	0	0	0	1.0
6	-26.47452545	0.0002460821415	-2.294923434e-05	0	0	0	1.0
7	-26.47452545	0.0002460821415	-2.294923434e-05	0	0	0	1.0
[RightHandMiddle1]
5	-95.32502747	-0.0001631230261	0.0001679184206	-3.53036809	-16.46828079	52.07723618	1.0
6	-95.32502747	-0.0001631230261	0.0001679184206	-3.53036809	-16.46828079	52.07723618	1.0
7	-95.32502747	-0.0001631230261	0.0001679184206	-3.53036809	-16.46828079	52.07723618	1.0
[RightHandMiddle2]
5	-36.98236847	0.000150669599	-0.0002254552383	-6.350979805	-4.299677372	111.8329315	1.0
6	-36.98236847	0.000150669599	-0.0002254552383	-6.350979805	-4.299677372	111.8329315	1.0
7	-36.98236847	0.000150669599	-0.0002254552383	-6.350979805	-4.299677372	111.8329315	1.0
[RightHandMiddle3]
5	-29.50921631	-3.113244929e-06	-3.03402544e-06	-0.2459617406	-1.492588997	18.73979759	1.0
6	-29.50921631	-3.113244929e-06	-3.03402544e-06	-0.2459617406	-1.492588997	18.73979759	1.0
7	-29.50921631	-3.113244929e-06	-3.03402544e-06	-0.2459617406	-1.492588997	18.73979759	1.0
[RightHandMiddle4]
5	-28.3390255	8.05324089e-05	0.0005378770875	0	0	0	1.0
6	-28.3390255	8.05324089e-05	0.0005378770875	0	0	0	1.0
7	-28.3390255	8.05324089e-05	0.0005378770875	0	0	0	1.0
[RightHandIndex1]
5	-91.08280945	-5.167889595	22.60116386	-1.387360573	-4.207729816	25.46813583	1.0
6	-91.08280945	-5.167889595	22.60116386	-1.387360573	-4.207729816	25.46813583	1.0
7	-91.08280945	-5.167889595	22.60116386	-1.387360573	-4.207729816	25.46813583	1.0
[RightHandIndex2]
5	-36.76409531	0.0001922715601	0.0003235567128	-1.643622756	-3.539990187	49.80016327	1.0
6	-36.76409531	0.0001922715601	0.0003235567128	-1.643622756	-3.539990187	49.80016327	1.0
7	-36.76409531	0.0001922715601	0.0003235567128	-1.643622756	-3.539990187	49.80016327	1.0
[RightHandIndex3]
5	-28.83062553	-0.0004960121587	0.0004044897505	-1.727792621	-3.609309912	51.15027237	1.0
6	-28.83062553	-0.0004960121587	0.0004044897505	-1.727792621	-3.609309912	51.15027237	1.0
7	-28.83062553	-0.0004960121587	0.0004044897505	-1.727792621	-3.609309912	51.15027237	1.0
[RightHandIndex4]
5	-23.92720032	0.0002681470069	0.0002802013478	0	0	0	1.0
6	-23.92720032	0.0002681470069	0.0002802013478	0	0	0	1.0
7	-23.92720032	0.0002681470069	0.0002802013478	0	0	0	1.0
[RightHandThumb1]
5	-24.64805984	-15.72714233	26.82626534	7.322416306	-6.350176334	10.24958611	1.0
6	-24.64805984	-15.72714233	26.82626534	7.322416306	-6.350176334	10.24958611	1.0
7	-24.64805984	-15.72714233	26.82626534	7.322416306	-6.350176334	10.24958611	1.0
[RightHandThumb2]
5	-32.29771805	-18.6470871	18.64718437	26.54580307	-9.159310341	-24.03568459	1.0
6	-32.29771805	-18.6470871	18.64718437	26.54580307	-9.159310341	-24.03568459	1.0
7	-32.29771805	-18.6470871	18.64718437	26.54580307	-9.159310341	-24.03568459	1.0
[RightHandThumb3]
5	-26.52605057	-15.31449318	15.31445599	31.8479023	-40.59857559	-44.24287415	1.0
6	-26.52605057	-15.31449318	15.31445599	31.8479023	-40.59857559	-44.24287415	1.0
7	-26.52605057	-15.31449318	15.31445599	31.8479023	-40.59857559	-44.24287415	1.0
[RightHandThumb4]
5	-19.54580498	-11.28461742	11.28507042	0	0	0	1.0
6	-19.54580498	-11.28461742	11.28507042	0	0	0	1.0
7	-19.54580498	-11.28461742	11.28507042	0	0	0	1.0
[LeftUpLeg]
5	82.07781982	-67.51714325	-15.99555588	-27.25786591	18.73237038	15.51918697	1.0
6	82.07781982	-67.51714325	-15.99555588	-27.35227585	18.77474594	15.53675652	1.0
7	82.07781982	-67.51714325	-15.99555588	-27.41910362	18.8166275	15.56167698	1.0
[LeftLeg]
5	-4.110157988e-06	-443.7047119	2.846426487	27.25379181	8.661728859	4.905509472	1.0
6	-4.110157988e-06	-443.7047119	2.846426487	27.43666458	8.634895325	4.917823315	1.0
7	-4.110157988e-06	-443.7047119	2.846426487	27.58921432	8.619386673	4.931574345	1.0
[LeftFoot]
5	4.716393505e-06	-444.278717	-29.82190704	3.325451612	6.567138672	-8.394615173	1.0
6	4.716393505e-06	-444.278717	-29.82190704	3.261363983	6.577877045	-8.417125702	1.0
7	4.716393505e-06	-444.278717	-29.82190704	3.209835768	6.587639332	-8.442476273	1.0
[LeftToeBase]
5	-2.960988058e-05	-87.28669739	107.1055984	1.342095857e-07	-3.222650776e-06	-1.754975301e-06	1.0
6	-2.960988058e-05	-87.28669739	107.1055984	1.342095857e-07	-3.222650776e-06	-1.754975301e-06	1.0
7	-2.960988058e-05	-87.28669739	107.1055984	1.342095857e-07	-3.222650776e-06	-1.754975301e-06	1.0
[RightUpLeg]
5	-82.07795715	-67.51662445	-15.99559402	-12.88392162	-15.36511517	-5.821945667	1.0
6	-82.07795715	-67.51662445	-15.99559402	-13.04431915	-15.36643791	-5.814545155	1.0
7	-82.07795715	-67.51662445	-15.99559402	-13.18140793	-15.36218262	-5.802128792	1.0
[RightLeg]
5	8.435572454e-07	-443.7053833	2.861563921	21.89826965	8.225268364	2.218935251	1.0
6	8.435572454e-07	-443.7053833	2.861563921	22.18088341	8.21989727	2.26180315	1.0
7	8.435572454e-07	-443.7053833	2.861563921	22.42468452	8.216845512	2.295511007	1.0
[RightFoot]
5	9.644581951e-06	-444.2773132	-29.83789063	-8.728254318	-8.805788994	13.75204659	1.0
6	9.644581951e-06	-444.2773132	-29.83789063	-8.86220932	-8.744670868	13.72960663	1.0
7	9.644581951e-06	-444.2773132	-29.83789063	-8.982397079	-8.682177544	13.70596218	1.0
[RightToeBase]
5	-2.360438157e-05	-87.28668976	107.1056061	-2.270344567e-06	3.233250936e-06	2.690227348e-06	1.0
6	-2.360438157e-05	-87.28668976	107.1056061	-2.270344567e-06	3.233250936e-06	2.690227348e-06	1.0
7	-2.360438157e-05	-87.28668976	107.1056061	-2.270344567e-06	3.233250936e-06	2.690227348e-06	1.0
[EndOfFile]
